<mxfile host="app.diagrams.net" modified="2023-04-12T03:47:03.032Z" agent="Mozilla/5.0 (Macintosh; Intel Mac OS X 10_15_7) AppleWebKit/605.1.15 (KHTML, like Gecko) Version/16.4 Safari/605.1.15" version="21.1.6" etag="hA53TiGLXdEkAK_cJXvs" type="github">
  <diagram name="Page-1" id="2iH_h-lKWb1eitDNVVH6">
    <mxGraphModel>
      <root>
        <mxCell id="0" />
        <mxCell id="1" parent="0" />
      </root>
    </mxGraphModel>
  </diagram>
</mxfile>
